# xmcd
#
# Track frame offsets: 
#        150
#        16708
#        31663
#        43963
#        58973
#        70391
#        85969
#        101524
#        115712
#        129584
#        145344
#        158584
#        171286
#        183941
#        196409
#        210510
#        225908
#        239951
#        254357
#        269333
#        281872
#        295948
#        310533
#        324725
#        338775
#
# Disc length: 4695 seconds
#
# Revision: 1
# Processed by: cddbd v1.5.2PL0 Copyright (c) Steve Scherf et al.
# Submitted via: ExactAudioCopyFreeDBPlugin 1.0
#
DISCID=71125519
DTITLE=Various Artist - Lonesome Whistle:  An Anthology of American R
DTITLE=ailroad Song
DYEAR=1928
DGENRE=Trains
TTITLE0=Kelly Harrell - The Wreck on the Southern Old 97 (1925)
TTITLE1=Roy Harvey - The Brave Engineer (1926)
TTITLE2=Blind Joe Taggart - I Wish My Mother Was on That Train (1926)
TTITLE3=Ollie Rupert - I Raised My Window and Looked At The Risin' Sun
TTITLE3=(1927)
TTITLE4=Sam Collins - Yellow Dog Blues (1927)
TTITLE5=Williamson Bros and Curry - Gonna Die with My Hammer in My Hand 
TTITLE5=(1927)
TTITLE6=Blind Joe Amos (Blind Joe Taggart) - C and O Blues (1927)
TTITLE7=Roy Harvey - The Wreck of the Virginian No.3 (1927)
TTITLE8=Tenneva Ramblers - The Longest Train I Ever Saw (1927)
TTITLE9=Andrew and Jim Baxter - K.C. Railroad Blues (1927)
TTITLE10=Ed Bell - Mean Conductor Blues (1927)
TTITLE11=Ed Bell - Frisco Whistle Blues (1927)
TTITLE12=Blind Lemon Jefferson - Rambler Blues (1927)
TTITLE13=Blind Lemon Jefferson - Sunshine Special (1927)
TTITLE14=Henry Whitter and G.B. Grayson - Train 45 (1928)
TTITLE15=Burnett and Rutherford - Ramblin' Reckless Hobo (1927)
TTITLE16=Allen Brothers - Chattanooga Blues (1927)
TTITLE17="Billiken" Johnson and Fred Adams - Sun Beam Blues (1927)
TTITLE18=Cannon's Jug Stompers - Big Railroad Blues (1928)
TTITLE19=Tenneva Ramblers - If I Die a Railroad Man (1928)
TTITLE20=Pink Anderson and Simmie Dooley - C. C. and O. Blues (1928)
TTITLE21=G.B. Grayson and Henry Whitter - The Red and Green Signal Lig
TTITLE21=hts (1928)
TTITLE22=Sloppy Henry - Royal Palm Special Blues (1928)
TTITLE23=Furry Lewis - Kassie Jones - Part 1 (1928)
TTITLE24=Frank Hutchison - Hell Bound Train (1928)
EXTD=
EXTT0=
EXTT1=
EXTT2=
EXTT3=
EXTT4=
EXTT5=
EXTT6=
EXTT7=
EXTT8=
EXTT9=
EXTT10=
EXTT11=
EXTT12=
EXTT13=
EXTT14=
EXTT15=
EXTT16=
EXTT17=
EXTT18=
EXTT19=
EXTT20=
EXTT21=
EXTT22=
EXTT23=
EXTT24=
PLAYORDER=
